<svg width="24" height="24" viewBox="0 0 24 24" fill="none" xmlns="http://www.w3.org/2000/svg">
<path d="M6.2907 2.55346C4.5431 3.18528 3.1853 4.54305 2.5535 6.29064C2.4464 6.58633 2.3202 6.93507 2.2742 7.24165C2.2199 7.60384 2.256 7.94519 2.392 8.32365C2.6832 9.13408 3.3357 9.49626 4.0548 9.89542L5.4727 10.6861C5.9855 10.9721 6.324 11.1618 6.5652 11.3286C6.8 11.4909 6.8667 11.582 6.8944 11.6358C6.9091 11.6641 6.9547 11.8022 6.9427 12.2506C6.9314 12.6742 6.8764 13.2487 6.7976 14.0663C6.6704 15.3845 6.8891 16.6904 7.6498 17.9068C7.7782 18.1123 7.9396 18.3708 8.12 18.563C8.3331 18.7901 8.5785 18.9506 8.8947 19.0787C9.2165 19.2091 9.5093 19.2619 9.8252 19.2478C10.094 19.2358 10.4026 19.1656 10.6602 19.107C12.6359 18.6584 14.5217 17.5121 16.017 16.0169C17.5122 14.5216 18.6585 12.6359 19.1071 10.6602C19.1656 10.4027 19.2358 10.0941 19.2478 9.82535C19.2619 9.50941 19.209 9.21658 19.0785 8.89474C18.9503 8.5786 18.7897 8.3331 18.5625 8.12006C18.3702 7.93974 18.1117 7.7784 17.9062 7.65019C16.7068 6.90084 15.4115 6.66967 14.1032 6.78538C13.2679 6.85926 12.679 6.91095 12.246 6.91998C12.032 6.92445 11.7609 6.94301 11.6197 6.86947C11.5674 6.84219 11.4765 6.7753 11.3135 6.53889C11.1466 6.29676 10.9562 5.95698 10.6698 5.44342L9.8954 4.05478C9.4963 3.33567 9.1341 2.68318 8.3237 2.39201C7.9452 2.25603 7.6039 2.2199 7.2417 2.27422C6.9351 2.32019 6.5864 2.44643 6.2907 2.55346Z" fill="#FF0000"/>
<path d="M16.6964 15.2812L21.4571 20.042C21.8476 20.4325 21.8476 21.0657 21.4571 21.4562C21.0666 21.8467 20.4334 21.8467 20.0429 21.4562L15.2822 16.6955C15.536 16.4785 15.7813 16.2516 16.017 16.0159C16.2526 15.7803 16.4795 15.5351 16.6964 15.2812Z" fill="black"/>
</svg>
